HIERARCHY
ROOT hip
{
  OFFSET 0 0 0
  CHANNELS 6 Xposition Yposition Zposition Zrotation Yrotation Xrotation
  JOINT abdomen
  {
    OFFSET 0 20.6881 -0.73152
    CHANNELS 3 Zrotation Xrotation Yrotation
    JOINT chest
    {
      OFFSET 0 11.7043 -0.48768
      CHANNELS 3 Zrotation Xrotation Yrotation
      JOINT neck
      {
        OFFSET 0 22.1894 -2.19456
        CHANNELS 3 Zrotation Xrotation Yrotation
        JOINT head
        {
          OFFSET -0.24384 7.07133 1.2192
          CHANNELS 3 Zrotation Xrotation Yrotation
          JOINT leftEye
          {
            OFFSET 4.14528 8.04674 8.04672
            CHANNELS 3 Zrotation Xrotation Yrotation
            End Site
            {
              OFFSET 1 0 0
            }
          }
          JOINT rightEye
          {
            OFFSET -3.6576 8.04674 8.04672
            CHANNELS 3 Zrotation Xrotation Yrotation
            End Site
            {
              OFFSET 1 0 0
            }
          }
        }
      }
      JOINT rCollar
      {
        OFFSET -2.68224 19.2634 -4.8768
        CHANNELS 3 Zrotation Xrotation Yrotation
        JOINT rShldr
        {
          OFFSET -8.77824 -1.95073 1.46304
          CHANNELS 3 Zrotation Xrotation Yrotation
          JOINT rForeArm
          {
            OFFSET -28.1742 -1.7115 0.48768
            CHANNELS 3 Zrotation Xrotation Yrotation
            JOINT rHand
            {
              OFFSET -22.5879 0.773209 7.07136
              CHANNELS 3 Zrotation Xrotation Yrotation
              JOINT rThumb1
              {
                OFFSET -1.2192 -0.487915 3.41376
                CHANNELS 3 Zrotation Xrotation Yrotation
                JOINT rThumb2
                {
                  OFFSET -3.37035 -0.52449 3.41376
                  CHANNELS 3 Zrotation Xrotation Yrotation
                  End Site
                  {
                    OFFSET -1.78271 -1.18214 1.43049
                  }
                }
              }
              JOINT rIndex1
              {
                OFFSET -7.75947 0.938293 5.60832
                CHANNELS 3 Zrotation Xrotation Yrotation
                JOINT rIndex2
                {
                  OFFSET -2.54057 -0.884171 1.56538
                  CHANNELS 3 Zrotation Xrotation Yrotation
                  End Site
                  {
                    OFFSET -1.62519 -0.234802 1.16502
                  }
                }
              }
              JOINT rMid1
              {
                OFFSET -8.24714 1.18213 3.41376
                CHANNELS 3 Zrotation Xrotation Yrotation
                JOINT rMid2
                {
                  OFFSET -3.10165 -0.590103 1.0647
                  CHANNELS 3 Zrotation Xrotation Yrotation
                  End Site
                  {
                    OFFSET -2.48547 -0.328903 0.83742
                  }
                }
              }
              JOINT rRing1
              {
                OFFSET -8.82822 0.546677 1.51678
                CHANNELS 3 Zrotation Xrotation Yrotation
                JOINT rRing2
                {
                  OFFSET -2.60934 -0.819778 -0.0198488
                  CHANNELS 3 Zrotation Xrotation Yrotation
                  End Site
                  {
                    OFFSET -2.33842 -0.294052 0.168128
                  }
                }
              }
              JOINT rPinky1
              {
                OFFSET -8.27202 -0.0477905 -0.4584
                CHANNELS 3 Zrotation Xrotation Yrotation
                JOINT rPinky2
                {
                  OFFSET -1.82734 -0.647385 -0.700984
                  CHANNELS 3 Zrotation Xrotation Yrotation
                  End Site
                  {
                    OFFSET -1.69225 -0.51767 -0.607171
                  }
                }
              }
            }
          }
        }
      }
      JOINT lCollar
      {
        OFFSET 2.68224 19.2634 -4.8768
        CHANNELS 3 Zrotation Xrotation Yrotation
        JOINT lShldr
        {
          OFFSET 8.77824 -1.95073 1.46304
          CHANNELS 3 Zrotation Xrotation Yrotation
          JOINT lForeArm
          {
            OFFSET 28.1742 -1.7115 0.48768
            CHANNELS 3 Zrotation Xrotation Yrotation
            JOINT lHand
            {
              OFFSET 22.5879 0.773209 7.07136
              CHANNELS 3 Zrotation Xrotation Yrotation
              JOINT lThumb1
              {
                OFFSET 1.2192 -0.487915 3.41376
                CHANNELS 3 Zrotation Xrotation Yrotation
                JOINT lThumb2
                {
                  OFFSET 3.37035 -0.52449 3.41376
                  CHANNELS 3 Zrotation Xrotation Yrotation
                  End Site
                  {
                    OFFSET 1.78271 -1.18214 1.43049
                  }
                }
              }
              JOINT lIndex1
              {
                OFFSET 7.75947 0.938293 5.60832
                CHANNELS 3 Zrotation Xrotation Yrotation
                JOINT lIndex2
                {
                  OFFSET 2.54057 -0.884171 1.56538
                  CHANNELS 3 Zrotation Xrotation Yrotation
                  End Site
                  {
                    OFFSET 1.62519 -0.234802 1.16502
                  }
                }
              }
              JOINT lMid1
              {
                OFFSET 8.24714 1.18213 3.41376
                CHANNELS 3 Zrotation Xrotation Yrotation
                JOINT lMid2
                {
                  OFFSET 3.10165 -0.590103 1.0647
                  CHANNELS 3 Zrotation Xrotation Yrotation
                  End Site
                  {
                    OFFSET 2.48547 -0.328903 0.83742
                  }
                }
              }
              JOINT lRing1
              {
                OFFSET 8.82822 0.546677 1.51678
                CHANNELS 3 Zrotation Xrotation Yrotation
                JOINT lRing2
                {
                  OFFSET 2.60934 -0.819778 -0.0198488
                  CHANNELS 3 Zrotation Xrotation Yrotation
                  End Site
                  {
                    OFFSET 2.33842 -0.294052 0.168128
                  }
                }
              }
              JOINT lPinky1
              {
                OFFSET 8.27202 -0.0477905 -0.4584
                CHANNELS 3 Zrotation Xrotation Yrotation
                JOINT lPinky2
                {
                  OFFSET 1.82734 -0.647385 -0.700984
                  CHANNELS 3 Zrotation Xrotation Yrotation
                  End Site
                  {
                    OFFSET 1.69225 -0.51767 -0.607171
                  }
                }
              }
            }
          }
        }
      }
    }
  }
  JOINT rButtock
  {
    OFFSET -8.77824 4.35084 1.2192
    CHANNELS 3 Zrotation Xrotation Yrotation
    JOINT rThigh
    {
      OFFSET 0 -1.70687 -2.19456
      CHANNELS 3 Zrotation Xrotation Yrotation
      JOINT rShin
      {
        OFFSET 0 -36.8199 0.73152
        CHANNELS 3 Zrotation Xrotation Yrotation
        JOINT rFoot
        {
          OFFSET 0.73152 -45.1104 -5.12064
          CHANNELS 3 Zrotation Xrotation Yrotation
          End Site
          {
            OFFSET -1.1221 -3.69964 12.103
          }
        }
      }
    }
  }
  JOINT lButtock
  {
    OFFSET 8.77824 4.35084 1.2192
    CHANNELS 3 Zrotation Xrotation Yrotation
    JOINT lThigh
    {
      OFFSET 0 -1.70687 -2.19456
      CHANNELS 3 Zrotation Xrotation Yrotation
      JOINT lShin
      {
        OFFSET 0 -36.8199 0.73152
        CHANNELS 3 Zrotation Xrotation Yrotation
        JOINT lFoot
        {
          OFFSET -0.73152 -45.1104 -5.12064
          CHANNELS 3 Zrotation Xrotation Yrotation
          End Site
          {
            OFFSET 1.1221 -3.69964 12.103
          }
        }
      }
    }
  }
}
MOTION
Frames:	4
Frame Time:	0.03333
-1.4399975538253784 33.13327729701996 0.04781566094607115 -2.746120244485939 2.364336788987733 1.3458530241795759 -0.0472184851144733 8.533389047109226 1.8488972036029554 2.1985245553755646 -4.1917950960030765 0.6944743715390029 -2.8821925537914024 7.590513875587523 -0.7729176534135713 4.3302110139675 -13.450916928748722 -1.9627506940949557 0.3518900653785876 0.6118027756813735 -1.090760399718409 -0.5392184620933538 0.9033658355460582 0.40286814274432975 0.447130383247804 0.981627743881651 0.7493403206463634 23.490436112379335 16.404589546638423 8.298410049093278 -12.311322063846896 -15.27631913538048 33.15192481601726 -2.223011423880295 -5.570720216308971 -2.3548430394848268 0.5427687197187324 0.37392164095925706 0.6093345694309131 -0.021801003335328667 0.7574470615000809 1.2224951120140912 -0.0524586009096218 0.005138410009538772 0.09670587369386022 3.9370943536455387 1.7530896065066577 0.9310993917840719 0.6078157061142315 -0.142297066238578 0.21957329289957336 1.6827457016881078 1.4567612090354196 -0.9314110191649536 0.20714400279658976 -0.3257425537710449 -0.01014083989064545 5.031322248306493 -0.6292031094788042 -0.8844650479261933 -0.08966534938196546 0.17126707347934908 1.070036752002944 1.3169009195049495 0.3359483504949249 -0.2921455736152662 0.4608901728567649 0.7983525841916113 0.2471589328533739 -29.506280610671684 16.276228094019082 -11.592341347091857 12.384213842669272 -14.60245950205619 -30.89076678562244 2.1261578473456333 -5.914588224507378 2.5459278267996885 0.9200639405194468 0.12087185670973226 0.45290504138678533 0.18967871550097792 1.1491850908267576 0.3780211418434399 0.1200756861041762 -0.09941816582565609 -0.59631366755193 -3.7824029486626207 2.8803569404519616 -0.08788361716373094 0.8117388478303371 0.7016875315502125 -0.929607955945776 -1.1988990495875185 -1.0299046948740647 -1.142218084429933 -0.2621243575725479 0.5125502019224506 0.2947668988330966 -4.825158964625182 -0.6951784679928961 0.31310216813402564 0.7779518229969881 -0.9353527853679915 -0.7037998209118917 -1.0774128226980288 0.6325370422065637 -0.10140824549400244 -0.8167063163476405 0.6339986493280936 -0.36144264522180575 -15.422034391133531 -18.26667840684961 -14.39316884550866 -2.77911816902674 31.28723877637417 3.5310724777736615 -1.736023311648323 -5.399279053047066 -4.6227480161191465 0.7266462700770555 -1.2659685190292818 0.08444392322554194 18.02529781403407 -18.276196275458023 16.038190878802258 2.3135923254359465 30.97521182942589 -2.577191950508364 3.420798433293571 -4.310955856923588 6.532444575505793
-2.554477285593748 39.632317423820496 0.03850860521197319 -3.4518858258574725 2.9848238300336605 1.4409526294797195 -0.5344120899909276 10.016431436688679 2.2644821980864966 2.4520259592035303 -5.505602900309362 0.857539961970327 -3.054854186480624 9.351365671920783 -1.3354905599916087 5.2577199674039665 -15.960683599648247 -2.7398138454479017 0.276109650145825 0.3390142516586144 -0.7598538494088641 -0.2669452438269604 0.704858393511538 0.3831990122036913 0.3454844685150263 0.6399188225129079 0.5448289822488432 28.977255138697515 19.5430802532795 9.953078017042227 -14.838048094455562 -18.33541743065662 40.353160597596364 -2.705914335936659 -6.917540459308044 -2.8925462667994957 0.3990827238402618 0.20760066497562857 0.4209817510623507 -0.19786919287309424 0.6710313480385209 1.0586169958758 0.05285520544873211 -0.10114792457317504 0.05739269221344199 4.819591506677975 2.566511028750345 0.8288820356776874 0.5574053882232466 -0.3254398376525958 0.278306809944027 1.8080595025554491 1.301950916072261 -0.7578486552789365 0.034868702682296894 -0.3240145159110317 0.025264139363203226 6.236791726432152 -0.3638104530275523 -0.759637097624422 -0.018594336241713465 0.006973863266421027 0.8161836467935758 1.4576424101600571 0.06028783864788114 -0.25607262320493146 0.3591293188468606 0.6855141772041512 0.15722903370298946 -35.68782037558666 19.713162208896573 -14.72455596365934 14.846257981837919 -17.63331667266162 -37.99424548470574 2.7789644897704147 -7.6614274608715345 2.948177303815603 0.6845989852162223 0.022190537561430957 0.2144684735469293 0.09437122965818524 0.8892456467366733 0.275780760529033 0.2073588335903278 -0.12856283647815173 -0.3968829760406945 -4.553282430939178 3.5305147501392473 -0.15260975809101132 0.622017163502569 0.6936153151683152 -0.8675072890426383 -1.5612824199653612 -0.5776193864327522 -0.8084204964716216 -0.3383004435294952 0.3132371177309863 -0.03618687583125646 -5.886963097522439 -0.3396118398501376 0.12254794777945635 0.8629947217962284 -0.7688715133822793 -0.5361111529078212 -1.5566936000601705 0.26486747893710133 0.10188406421922903 -0.5941129592570108 0.6303031968219993 -0.3259843051150663 -19.020065347774942 -22.269514185030168 -17.389437938157148 -3.5518669887017653 38.18763546086548 4.079774870972989 -2.37421985927333 -6.518016227770964 -5.921066232048313 0.6545901755718011 -0.911929505383079 -0.03786584838703667 22.33219653859067 -21.776616998670782 19.331264134286357 2.7975421774260263 38.04888358297126 -3.4755016317996144 3.8945926477614883 -5.535662562846588 8.086013364020683
-3.3974584192037582 44.8566734790802 0.014660716988146305 -4.0694544551371 3.4518495404775065 1.6158157175158008 -0.9234343187097308 11.163818693659843 2.6255266379436057 2.5660781655116955 -6.54978429137434 0.9844178761576012 -3.3278747768526054 10.780482010455692 -1.7848439030099874 5.991508534279593 -18.00909831287009 -3.2969711590660595 0.19485625235589882 0.16972411773758733 -0.4991028401071649 -0.10707036559423723 0.5353801092232182 0.3563512461236637 0.24728235650611016 0.40396641581852666 0.3958491628767896 33.42886849629376 22.077498784440895 11.332842823729209 -16.91605630980378 -20.884399632675773 46.274162796621205 -3.130576011496913 -7.993630786628029 -3.4101444054054086 0.25711313315587414 0.08640288017643978 0.26494725341217296 -0.23910283144904965 0.5241909787022679 0.8874302037996251 0.12973410719910314 -0.16899763640590654 0.033166651557641445 5.53038026529723 3.240538855482945 0.7085528321614273 0.4333525309901396 -0.37551990522504003 0.32610431367321757 1.987386546100957 1.1647276131699447 -0.5434692943563347 -0.06566410465918032 -0.2893475706135146 0.04182900228692376 7.198922054997767 -0.12041586154135457 -0.6170785098458266 0.02993713267877579 -0.09214269367848346 0.5951652886368688 1.5871753469437622 -0.16943073976839412 -0.21182543046197236 0.2674130050634005 0.5631381580927087 0.12526065345786214 -40.689380074584825 22.459454915659055 -17.331850905717477 16.810898717342262 -20.10328212372019 -43.8107662799969 3.293378266119221 -9.09118242209384 3.2582047128843596 0.5095483871430829 -0.030816319431216592 0.049783381230371765 0.025760592063232 0.6729692541329534 0.20701967200935437 0.23018479218798152 -0.1293909435541629 -0.25573930463734956 -5.216560820578647 3.997770339137347 -0.18688719584285254 0.49731861326905774 0.621078599461074 -0.7725238503192379 -1.8578528622653114 -0.20701129435545051 -0.5863902031006949 -0.3456305972106675 0.19290337854223052 -0.15037312460188337 -6.8263079150168915 -0.02913566600857033 0.06230178395768287 0.8361294533564526 -0.602384371702749 -0.41506216484691816 -1.8567623798756365 0.005632238022615983 0.19215376528082162 -0.4068292789369669 0.5704569725926418 -0.30490127205538237 -21.987925976118053 -25.45139196082646 -19.803153366306073 -4.1250270086584395 43.7756215416226 4.56922708066975 -2.8575624647575135 -7.403999338601046 -6.966862962851999 0.5701616736327446 -0.6337404895218083 -0.09451076828849449 25.914688814870303 -24.577937124481473 22.008834892714756 3.2993463573499313 43.764129748344054 -4.192208749334685 4.241092413224466 -6.558599504271887 9.386594080112417
-4.0114217437803745 49.089157581329346 -0.011676223948597908 -4.5943668725704505 3.819629614073306 1.7978336421508823 -1.2487767194449482 12.068495178474603 2.929438679827673 2.598103641869416 -7.371740355151076 1.0663424734356133 -3.6274186993190383 11.935130612288226 -2.139835728045407 6.585343109967073 -19.680127998975806 -3.685050127988313 0.12635860636694168 0.06903208161108419 -0.3088991471952348 -0.01507337372457189 0.3898932379205385 0.33079395890994534 0.1624968171003618 0.24626172347286926 0.26933452937599545 37.05995415342345 24.12618670522954 12.48200507611093 -18.62608979116485 -22.998175841160055 51.151307184793005 -3.5065871033728118 -8.86473859921947 -3.8660821575053856 0.133945399070092 0.01566535902654159 0.1308123165926131 -0.2185552745481241 0.3743018370361035 0.7233578007959588 0.17521340203530905 -0.2157343797404824 0.012668079919669588 6.099573652893419 3.8109697879793756 0.5964458423845403 0.29487906334587294 -0.36654231525214587 0.35791325168990745 2.1686734270514356 1.0428990230483082 -0.3504015110263479 -0.12243631687520896 -0.23713453634889595 0.03977874491672989 7.982903120762878 0.08352926484614204 -0.45277836272202276 0.0678987637967513 -0.1365501824235263 0.40979011258131454 1.6893230671371244 -0.36852360371997844 -0.17730621468568328 0.19125655590031698 0.45252799360025947 0.1183543717116272 -44.75535412145298 24.666760319542906 -19.487678881374233 18.398750359735562 -22.114991400342387 -48.57147643338749 3.7149108612659627 -10.256176199198004 3.486129619591566 0.37882619703100223 -0.059872184284288844 -0.05622222190528394 -0.0281187148741789 0.4963449377863607 0.15453369698219963 0.21769776564217017 -0.1172072200961824 -0.16184405378694955 -5.792049935042296 4.356694218700579 -0.21287417132447345 0.4091474344690987 0.5170986276620031 -0.6678155028782086 -2.1056901182806325 0.08852085246895197 -0.43422511433703515 -0.31192710879251895 0.12077305909060508 -0.16931323917032873 -7.629372529323018 0.2166372720518199 0.04058146223192498 0.7518424643992623 -0.4495711620198787 -0.3128725563840368 -2.050138482213626 -0.19027348890751114 0.22314633560913627 -0.26221224289725886 0.49362433470172706 -0.2837187743659101 -24.442415926064665 -28.015820635653597 -21.7761354703343 -4.552329619549961 48.32797335928736 4.999533694135607 -3.2445524453939734 -8.107501139149543 -7.828970293664654 0.47772845679069753 -0.4078257928647012 -0.10156894170248286 28.87786905608466 -26.84619001387664 24.20098069173576 3.7627981713105685 48.41212128986192 -4.772860206150394 4.481777607405138 -7.405920329305112 10.459268459073748
